<svg width="17" height="20" viewBox="0 0 17 20" fill="none" xmlns="http://www.w3.org/2000/svg">
<path d="M16.6074 4.10397V3.63885C16.6074 2.35294 15.5677 1.91518 14.2818 1.91518H12.1204L11.7921 1.53215C11.4637 0.601915 10.5882 0 9.60328 0H6.97674C5.99179 0 5.11628 0.629275 4.78796 1.53215L4.45964 1.91518H2.32558C1.03967 1.91518 0 2.35294 0 3.63885V4.10397C0 4.40492 0.246238 4.65116 0.547196 4.65116H16.0876C16.3611 4.65116 16.6074 4.40492 16.6074 4.10397Z" fill="#573605"/>
<path d="M15.3213 5.66356C15.2118 5.55413 15.075 5.47205 14.9109 5.47205H1.66873C1.50457 5.47205 1.36777 5.52677 1.25833 5.66356C1.14889 5.773 1.09418 5.93716 1.12154 6.10132L2.65368 18.3859C2.79048 19.3161 3.58392 20.0001 4.51415 20.0001H12.0654C12.9957 20.0001 13.7891 19.3161 13.9259 18.3859L15.4581 6.12868C15.4854 5.93716 15.4307 5.773 15.3213 5.66356ZM5.9095 16.9632C5.88214 16.9632 5.85478 16.9632 5.82742 16.9632C5.55382 16.9632 5.30758 16.7716 5.28022 16.498L4.18583 8.8373C4.15847 8.53634 4.34999 8.26274 4.65095 8.23538C4.95191 8.20802 5.2255 8.39954 5.25286 8.7005L6.34725 16.3612C6.40197 16.6348 6.21045 16.9084 5.9095 16.9632ZM8.83699 16.416C8.83699 16.7169 8.59076 16.9632 8.2898 16.9632C7.98884 16.9632 7.7426 16.7169 7.7426 16.416V8.75522C7.7426 8.45426 7.98884 8.20802 8.2898 8.20802C8.59076 8.20802 8.83699 8.45426 8.83699 8.75522V16.416ZM12.3938 8.8373L11.2994 16.498C11.272 16.7716 11.0258 16.9632 10.7522 16.9632C10.7248 16.9632 10.6975 16.9632 10.6701 16.9632C10.3691 16.9358 10.1503 16.6622 10.205 16.3612L11.2994 8.7005C11.3267 8.39954 11.6003 8.18066 11.9013 8.23538C12.2296 8.26274 12.4211 8.53634 12.3938 8.8373Z" fill="#573605"/>
</svg>
